<svg height="512pt" viewBox="0 0 512 512" width="512pt" xmlns="http://www.w3.org/2000/svg"><path d="m331.273438 175h-10.566407c-.617187 0-1.183593-.363281-1.4375-.925781l-2.65625-5.785157c-6.757812-14.726562-21.59375-24.242187-37.796875-24.242187h-39.925781c-16.203125 0-31.039063 9.515625-37.792969 24.238281l-2.65625 5.789063c-.257812.5625-.824218.925781-1.441406.925781h-12.269531c-23.5625 0-42.730469 19.167969-42.730469 42.726562v89.5c0 23.5625 19.167969 42.726563 42.726562 42.726563h146.546876c23.558593 0 42.726562-19.164063 42.726562-42.726563v-89.5c0-23.558593-19.167969-42.726562-42.726562-42.726562zm2.726562 132.226562c0 1.503907-1.222656 2.726563-2.726562 2.726563h-146.546876c-1.503906 0-2.726562-1.222656-2.726562-2.726563v-89.5c0-1.503906 1.222656-2.726562 2.726562-2.726562h12.269532c16.203125 0 31.039062-9.515625 37.796875-24.242188l2.65625-5.789062c.257812-.5625.820312-.921875 1.441406-.921875h39.925781c.617188 0 1.179688.359375 1.4375.921875l2.65625 5.792969c6.761719 14.722656 21.59375 24.238281 37.796875 24.238281h10.566407c1.503906 0 2.726562 1.222656 2.726562 2.726562zm-46-51.226562c0 16.570312-13.429688 30-30 30s-30-13.429688-30-30 13.429688-30 30-30 30 13.429688 30 30zm224-170v50c0 27.570312-22.429688 50-50 50h-50c-11.046875 0-20-8.953125-20-20s8.953125-20 20-20h29.9375c-38.582031-65.082031-109.207031-106-185.9375-106-11.046875 0-20-8.953125-20-20s8.953125-20 20-20c50.230469 0 98.863281 14.546875 140.640625 42.0625 30.414063 20.03125 56.011719 46.082031 75.359375 76.457031v-32.519531c0-11.046875 8.953125-20 20-20s20 8.953125 20 20zm-224.945312 404.953125c.460937 11.035156-8.109376 20.355469-19.148438 20.816406-3.621094.152344-7.292969.230469-10.90625.230469-50.019531 0-98.480469-14.433594-140.148438-41.738281-31.148437-20.410157-57.28125-47.148438-76.851562-78.375v34.113281c0 11.046875-8.953125 20-20 20s-20-8.953125-20-20v-50c0-27.570312 22.429688-50 50-50h50c11.046875 0 20 8.953125 20 20s-8.953125 20-20 20h-28.929688c38.589844 65.054688 109.292969 106 185.929688 106 3.058594 0 6.167969-.066406 9.238281-.191406 11.042969-.46875 20.355469 8.109375 20.816407 19.144531zm-287.054688-234.953125c0-11.046875 8.953125-20 20-20s20 8.953125 20 20-8.953125 20-20 20-20-8.953125-20-20zm11-73c0-11.046875 8.953125-20 20-20s20 8.953125 20 20-8.953125 20-20 20-20-8.953125-20-20zm34-66c0-11.046875 8.953125-20 20-20s20 8.953125 20 20-8.953125 20-20 20-20-8.953125-20-20zm52-52c0-11.046875 8.953125-20 20-20s20 8.953125 20 20-8.953125 20-20 20-20-8.953125-20-20zm66-34c0-11.046875 8.953125-20 20-20s20 8.953125 20 20-8.953125 20-20 20-20-8.953125-20-20zm349 225c0 11.046875-8.953125 20-20 20s-20-8.953125-20-20 8.953125-20 20-20 20 8.953125 20 20zm-11 71c0 11.046875-8.953125 20-20 20s-20-8.953125-20-20 8.953125-20 20-20 20 8.953125 20 20zm-32 64c0 11.046875-8.953125 20-20 20s-20-8.953125-20-20 8.953125-20 20-20 20 8.953125 20 20zm-49 52c0 11.046875-8.953125 20-20 20s-20-8.953125-20-20 8.953125-20 20-20 20 8.953125 20 20zm-63 35c0 11.046875-8.953125 20-20 20s-20-8.953125-20-20 8.953125-20 20-20 20 8.953125 20 20zm0 0"/></svg>