<svg xmlns="http://www.w3.org/2000/svg" width="34.12" height="29.83" viewBox="0 0 34.12 29.83">
  <g id="trocar-cam" transform="translate(1511 -847)">
    <g id="exchange" transform="translate(-1511 814.789)">
      <g id="Group_30" data-name="Group 30" transform="translate(0 32.211)">
        <g id="Group_29" data-name="Group 29" transform="translate(0 0)">
          <path id="Path_14" data-name="Path 14" d="M2.733,44.946a.7.7,0,0,0,.561-.014L8.842,42.41a.713.713,0,0,0,.334-.952.7.7,0,0,0-.916-.341L4.374,42.886a13.717,13.717,0,0,1,26.208.866.709.709,0,1,0,1.371-.362,15.145,15.145,0,0,0-28.936-.966L1.384,38.34a.714.714,0,0,0-.895-.455.714.714,0,0,0-.455.895.437.437,0,0,0,.035.085l2.266,5.682A.706.706,0,0,0,2.733,44.946Z" transform="translate(0 -32.211)"/>
          <path id="Path_15" data-name="Path 15" d="M64.2,294.392a.1.1,0,0,1-.014-.043l-2.266-5.682a.706.706,0,0,0-.4-.4.732.732,0,0,0-.561.014L55.418,290.8a.712.712,0,1,0,.547,1.314l.043-.021,3.885-1.769a13.727,13.727,0,0,1-26.222-.866.709.709,0,0,0-1.371.362,15.145,15.145,0,0,0,28.936.966l1.634,4.084a.71.71,0,1,0,1.335-.483Z" transform="translate(-30.127 -271.174)"/>
        </g>
      </g>
    </g>
    <circle id="Ellipse_18" data-name="Ellipse 18" cx="2" cy="2" r="2" transform="translate(-1496 860)"/>
  </g>
</svg>
