<svg xmlns="http://www.w3.org/2000/svg" width="25.463" height="25.463" viewBox="0 0 25.463 25.463">
  <g id="stars_2_" data-name="stars (2)" transform="translate(0 0)">
    <path id="Path_18" data-name="Path 18" d="M240.054,10.252a.93.93,0,0,1-.883-1.219l.839-2.563-2.189-1.583a.929.929,0,0,1,.545-1.682h2.7L241.9.643a.929.929,0,0,1,1.769,0l.252.78a.5.5,0,0,1-.946.306l-.19-.588L242,3.555a.927.927,0,0,1-.884.643h-2.548l2.064,1.493a.926.926,0,0,1,.339,1.042l-.791,2.416,2.053-1.5a.927.927,0,0,1,1.1,0l2.053,1.5-.791-2.416a.926.926,0,0,1,.339-1.042L246.993,4.2h-.872a.5.5,0,1,1,0-.995H247.2a.929.929,0,0,1,.545,1.682L245.551,6.47l.839,2.563a.929.929,0,0,1-1.431,1.04l-2.178-1.59-2.178,1.59A.927.927,0,0,1,240.054,10.252Zm4.078-6.187a.5.5,0,0,1-.358-.152l-.008-.008a.5.5,0,1,1,.366.16Zm.031-.53-.033.031Zm0,0" transform="translate(-225.627)"/>
    <path id="Path_19" data-name="Path 19" d="M287.381,296.5a.972.972,0,0,1-.1-.005.917.917,0,0,1-.8-.725l-.621-2.956-3-.309a.919.919,0,0,1-.364-1.712l2.619-1.5-.634-2.953a.919.919,0,0,1,1.516-.875l2.24,2.026,2.613-1.516a.919.919,0,0,1,1.3,1.171l-1.235,2.757,2.249,2.016a.919.919,0,0,1-.712,1.6l-3-.322-1.223,2.762a.916.916,0,0,1-.839.547Zm-4.194-4.961,2.827.291a.916.916,0,0,1,.806.725l.585,2.781,1.15-2.6a.916.916,0,0,1,.939-.542l2.826.3-2.117-1.9a.917.917,0,0,1-.225-1.06l1.162-2.594-2.458,1.427a.917.917,0,0,1-1.078-.113l-2.108-1.907.6,2.779a.916.916,0,0,1-.441.991Zm0,0" transform="translate(-268.002 -271.038)"/>
    <path id="Path_20" data-name="Path 20" d="M5,165.924a.911.911,0,0,1-.094-.005.885.885,0,0,1-.776-.7l-.57-2.711L.8,162.224A.888.888,0,0,1,.45,160.57l2.4-1.38-.582-2.709a.888.888,0,0,1,1.464-.845l2.055,1.858,2.4-1.391a.888.888,0,0,1,1.257,1.131L8.31,159.764l2.063,1.849a.888.888,0,0,1-.688,1.545l-2.755-.3L5.809,165.4a.886.886,0,0,1-.811.529Zm-3.767-4.656,2.505.258a.885.885,0,0,1,.778.7l.518,2.465,1.019-2.3a.885.885,0,0,1,.907-.524l2.5.269-1.875-1.681a.885.885,0,0,1-.218-1.024l1.029-2.3-2.178,1.264a.885.885,0,0,1-1.042-.11l-1.868-1.689.529,2.462a.885.885,0,0,1-.426.957Zm0,0" transform="translate(-0.004 -147.677)"/>
    <path id="Path_21" data-name="Path 21" d="M124.591,41.682a.5.5,0,0,1-.5-.5V40.5a.5.5,0,1,1,.995,0v.687A.5.5,0,0,1,124.591,41.682Zm0,0" transform="translate(-117.922 -38.011)"/>
    <path id="Path_22" data-name="Path 22" d="M124.591,107.869a.5.5,0,0,1-.5-.5v-.687a.5.5,0,0,1,.995,0v.687A.5.5,0,0,1,124.591,107.869Zm0,0" transform="translate(-117.922 -100.907)"/>
    <path id="Path_23" data-name="Path 23" d="M151.466,80.995h-.687a.5.5,0,1,1,0-.995h.687a.5.5,0,0,1,0,.995Zm0,0" transform="translate(-142.808 -76.022)"/>
    <path id="Path_24" data-name="Path 24" d="M85.278,80.995h-.687a.5.5,0,0,1,0-.995h.687a.5.5,0,0,1,0,.995Zm0,0" transform="translate(-79.911 -76.022)"/>
    <path id="Path_25" data-name="Path 25" d="M162.278,373.494a.5.5,0,0,1-.5-.5v-.687a.5.5,0,0,1,.995,0V373A.5.5,0,0,1,162.278,373.494Zm0,0" transform="translate(-153.735 -353.322)"/>
    <path id="Path_26" data-name="Path 26" d="M162.278,439.682a.5.5,0,0,1-.5-.5V438.5a.5.5,0,0,1,.995,0v.687A.5.5,0,0,1,162.278,439.682Zm0,0" transform="translate(-153.735 -416.218)"/>
    <path id="Path_27" data-name="Path 27" d="M189.156,412.808h-.687a.5.5,0,0,1,0-.995h.687a.5.5,0,1,1,0,.995Zm0,0" transform="translate(-178.624 -391.333)"/>
    <path id="Path_28" data-name="Path 28" d="M122.966,412.808h-.687a.5.5,0,1,1,0-.995h.687a.5.5,0,1,1,0,.995Zm0,0" transform="translate(-115.725 -391.333)"/>
    <path id="Path_29" data-name="Path 29" d="M1.492,454.918a1.492,1.492,0,1,1,1.492-1.492A1.494,1.494,0,0,1,1.492,454.918Zm0-1.989a.5.5,0,1,0,.5.5A.5.5,0,0,0,1.492,452.929Zm0,0" transform="translate(0 -429.458)"/>
    <path id="Path_30" data-name="Path 30" d="M439.492,209.113a1.492,1.492,0,1,1,1.492-1.492A1.494,1.494,0,0,1,439.492,209.113Zm0-1.989a.5.5,0,1,0,.5.5A.5.5,0,0,0,439.492,207.124Zm0,0" transform="translate(-416.217 -195.878)"/>
  </g>
</svg>
