<svg xmlns="http://www.w3.org/2000/svg" width="68.396" height="74.536" viewBox="0 0 68.396 74.536">
  <g id="pinch-icon" transform="translate(-2424.607 194.208)">
    <path id="zoom-in_1_" data-name="zoom-in (1)" d="M53.133,3.908a1.385,1.385,0,0,1,.986-1.7L62.2.049a1.331,1.331,0,0,1,1.056.138,1.379,1.379,0,0,1,.64.848l2.163,8.081a1.385,1.385,0,0,1-.986,1.7,1.317,1.317,0,0,1-.363.052,1.386,1.386,0,0,1-1.332-1.021l-1.3-4.862L55.867,15.743a1.379,1.379,0,0,1-1.194.692,1.27,1.27,0,0,1-.692-.19,1.383,1.383,0,0,1-.5-1.886l6.212-10.78-4.862,1.3a1.376,1.376,0,0,1-1.7-.969ZM52.026,33.428l-8.081,2.163a1.317,1.317,0,0,1-.363.052,1.386,1.386,0,0,1-1.332-1.021l-2.163-8.081a1.387,1.387,0,1,1,2.682-.709l1.3,4.845L50.278,19.9a1.38,1.38,0,1,1,2.388,1.384l-6.212,10.78,4.845-1.3a1.385,1.385,0,0,1,1.7.986,1.366,1.366,0,0,1-.969,1.678Z" transform="translate(2384.566 -194.205)" fill="#fff"/>
    <g id="touch_1_" data-name="touch (1)" transform="translate(2438.965 -188.297)">
      <g id="Group_47" data-name="Group 47" transform="translate(14.32 0)">
        <g id="Group_46" data-name="Group 46" transform="translate(0)">
          <path id="Path_41" data-name="Path 41" d="M223.625,125.029a6.187,6.187,0,0,0-3.119.841,6.221,6.221,0,0,0-10.513-2.48,6.21,6.21,0,0,0-7.405-1.277V110.479a6.227,6.227,0,1,0-12.454,0v8.874a1.683,1.683,0,0,0,3.366,0v-8.874a2.861,2.861,0,1,1,5.722,0v28.175a1.683,1.683,0,1,0,3.366,0V127.642a2.861,2.861,0,1,1,5.722,0v11.012a1.683,1.683,0,1,0,3.366,0V127.642a2.861,2.861,0,1,1,5.722,0v11.012a1.683,1.683,0,0,0,3.366,0v-7.4a2.861,2.861,0,1,1,5.722,0v17.6a20.831,20.831,0,0,1-.336,3.731,1.683,1.683,0,0,0,1.354,1.958,1.7,1.7,0,0,0,.3.028,1.684,1.684,0,0,0,1.654-1.381,24.228,24.228,0,0,0,.39-4.335v-17.6A6.234,6.234,0,0,0,223.625,125.029Z" transform="translate(-190.133 -104.252)" fill="#fff"/>
        </g>
      </g>
      <g id="Group_49" data-name="Group 49" transform="translate(0 24.53)">
        <g id="Group_48" data-name="Group 48" transform="translate(0)">
          <path id="Path_42" data-name="Path 42" d="M151.531,285.263a1.683,1.683,0,0,0-2.379-.082,20.654,20.654,0,0,1-32.685-6.124L108.715,263a3.087,3.087,0,0,1,5.415-2.949l5.483,9a1.683,1.683,0,0,0,3.12-.876V251.683a1.683,1.683,0,0,0-3.366,0v10.5L117,258.3a6.453,6.453,0,0,0-11.32,6.164l7.752,16.052a24.02,24.02,0,0,0,38.012,7.121A1.683,1.683,0,0,0,151.531,285.263Z" transform="translate(-105.047 -250)" fill="#fff"/>
        </g>
      </g>
      <g id="Group_51" data-name="Group 51" transform="translate(47.965 53.59)">
        <g id="Group_50" data-name="Group 50">
          <path id="Path_43" data-name="Path 43" d="M392.915,423.163a1.682,1.682,0,1,0,.493,1.19A1.7,1.7,0,0,0,392.915,423.163Z" transform="translate(-390.042 -422.67)" fill="#fff"/>
        </g>
      </g>
      <g id="Group_53" data-name="Group 53" transform="translate(14.32 19.144)">
        <g id="Group_52" data-name="Group 52">
          <path id="Path_44" data-name="Path 44" d="M193,218.493a1.682,1.682,0,1,0,.493,1.19A1.7,1.7,0,0,0,193,218.493Z" transform="translate(-190.132 -218)" fill="#fff"/>
        </g>
      </g>
    </g>
  </g>
</svg>
