<svg xmlns="http://www.w3.org/2000/svg" width="33.788" height="18.179" viewBox="0 0 33.788 18.179">
  <g id="rodar-esq" transform="translate(33.788 60.905) rotate(180)">
    <path id="Path_17" data-name="Path 17" d="M33.788,50.378c0-4.292-7.421-7.652-16.894-7.652S0,46.087,0,50.378a.545.545,0,1,0,1.09,0c0-3.558,7.238-6.563,15.8-6.563s15.8,3.006,15.8,6.563c0,3.529-7.131,6.513-15.613,6.558L19.026,55a.545.545,0,0,0-.771-.771l-3.261,3.259,3.261,3.26a.547.547,0,0,0,.772,0,.545.545,0,0,0,0-.771l-1.95-1.949C26.461,57.981,33.788,54.641,33.788,50.378Z" fill="#010002"/>
  </g>
</svg>
