<svg xmlns="http://www.w3.org/2000/svg" width="57.164" height="86.016" viewBox="0 0 57.164 86.016">
  <g id="touch-icon" transform="translate(-85.867)">
    <g id="Group_37" data-name="Group 37" transform="translate(107.92)">
      <g id="Group_36" data-name="Group 36" transform="translate(0)">
        <path id="Path_36" data-name="Path 36" d="M218.813,0a1.68,1.68,0,0,0-1.68,1.68V12.04a1.68,1.68,0,0,0,3.36,0V1.68A1.68,1.68,0,0,0,218.813,0Z" transform="translate(-217.133)" fill="#fff"/>
      </g>
    </g>
    <g id="Group_39" data-name="Group 39" transform="translate(119.608 22.053)">
      <g id="Group_38" data-name="Group 38" transform="translate(0)">
        <path id="Path_37" data-name="Path 37" d="M298.745,131.266h-10.36a1.68,1.68,0,0,0,0,3.36h10.36a1.68,1.68,0,0,0,0-3.36Z" transform="translate(-286.705 -131.266)" fill="#fff"/>
      </g>
    </g>
    <g id="Group_41" data-name="Group 41" transform="translate(85.867 22.048)">
      <g id="Group_40" data-name="Group 40" transform="translate(0)">
        <path id="Path_38" data-name="Path 38" d="M97.907,131.239H87.547a1.68,1.68,0,0,0,0,3.36h10.36a1.68,1.68,0,0,0,0-3.36Z" transform="translate(-85.867 -131.239)" fill="#fff"/>
      </g>
    </g>
    <g id="Group_43" data-name="Group 43" transform="translate(93.529 7.659)">
      <g id="Group_42" data-name="Group 42" transform="translate(0)">
        <path id="Path_39" data-name="Path 39" d="M139.235,50.973l-4.891-4.891a1.68,1.68,0,0,0-2.376,2.376l4.891,4.891a1.68,1.68,0,0,0,2.376-2.376Z" transform="translate(-131.475 -45.589)" fill="#fff"/>
      </g>
    </g>
    <g id="Group_45" data-name="Group 45" transform="translate(117.417 7.662)">
      <g id="Group_44" data-name="Group 44" transform="translate(0)">
        <path id="Path_40" data-name="Path 40" d="M281.426,46.1a1.68,1.68,0,0,0-2.376,0l-4.891,4.891a1.68,1.68,0,0,0,2.376,2.376l4.891-4.891A1.68,1.68,0,0,0,281.426,46.1Z" transform="translate(-273.666 -45.608)" fill="#fff"/>
      </g>
    </g>
    <g id="Group_47" data-name="Group 47" transform="translate(103.384 17.514)">
      <g id="Group_46" data-name="Group 46" transform="translate(0)">
        <path id="Path_41" data-name="Path 41" d="M223.565,124.992a6.176,6.176,0,0,0-3.114.839,6.21,6.21,0,0,0-10.494-2.475,6.2,6.2,0,0,0-7.392-1.275V110.468a6.216,6.216,0,0,0-12.432,0v8.858a1.68,1.68,0,1,0,3.36,0v-8.858a2.856,2.856,0,0,1,5.712,0v28.124a1.68,1.68,0,1,0,3.36,0V127.6a2.856,2.856,0,0,1,5.712,0v10.992a1.68,1.68,0,1,0,3.36,0V127.6a2.856,2.856,0,0,1,5.712,0v10.992a1.68,1.68,0,1,0,3.36,0v-7.385a2.856,2.856,0,1,1,5.712,0v17.568a20.8,20.8,0,0,1-.335,3.724,1.68,1.68,0,0,0,1.351,1.954,1.7,1.7,0,0,0,.3.028,1.681,1.681,0,0,0,1.651-1.379,24.185,24.185,0,0,0,.39-4.327V131.208A6.223,6.223,0,0,0,223.565,124.992Z" transform="translate(-190.133 -104.252)" fill="#fff"/>
      </g>
    </g>
    <g id="Group_49" data-name="Group 49" transform="translate(89.089 42)">
      <g id="Group_48" data-name="Group 48" transform="translate(0)">
        <path id="Path_42" data-name="Path 42" d="M151.447,285.2a1.68,1.68,0,0,0-2.374-.082A20.617,20.617,0,0,1,116.447,279l-7.739-16.023a3.081,3.081,0,0,1,5.406-2.944l5.473,8.98a1.68,1.68,0,0,0,3.115-.874V251.68a1.68,1.68,0,1,0-3.36,0v10.479l-2.359-3.87a6.441,6.441,0,0,0-11.3,6.153l7.739,16.023a23.977,23.977,0,0,0,37.944,7.108A1.68,1.68,0,0,0,151.447,285.2Z" transform="translate(-105.047 -250)" fill="#fff"/>
      </g>
    </g>
    <g id="Group_51" data-name="Group 51" transform="translate(136.968 71.008)">
      <g id="Group_50" data-name="Group 50">
        <path id="Path_43" data-name="Path 43" d="M392.91,423.162a1.679,1.679,0,1,0,.492,1.188A1.693,1.693,0,0,0,392.91,423.162Z" transform="translate(-390.042 -422.67)" fill="#fff"/>
      </g>
    </g>
    <g id="Group_53" data-name="Group 53" transform="translate(103.383 36.624)">
      <g id="Group_52" data-name="Group 52">
        <path id="Path_44" data-name="Path 44" d="M193,218.492a1.679,1.679,0,1,0,.492,1.188A1.693,1.693,0,0,0,193,218.492Z" transform="translate(-190.132 -218)" fill="#fff"/>
      </g>
    </g>
  </g>
</svg>
