<svg xmlns="http://www.w3.org/2000/svg" width="205.295" height="42.54" viewBox="0 0 205.295 42.54">
    <g id="Grupo_256" data-name="Grupo 256" transform="translate(11947.002 1678.059)">
        <path id="Caminho_293" data-name="Caminho 293" d="M4.689-7.156a.726.726,0,0,1,.456.134.475.475,0,0,1,.173.4.593.593,0,0,1-.181.44.789.789,0,0,1-.432.173,2.233,2.233,0,0,0-.755.2,2.269,2.269,0,0,0-.692.511,2.589,2.589,0,0,0-.645,1.069,4.6,4.6,0,0,0-.22,1.462V0a.638.638,0,0,1-.181.5.64.64,0,0,1-.448.165A.646.646,0,0,1,1.34.5.619.619,0,0,1,1.151,0V-6.449a.682.682,0,0,1,.173-.5.577.577,0,0,1,.425-.173.609.609,0,0,1,.409.165.644.644,0,0,1,.189.511v1.289a3.185,3.185,0,0,1,.967-1.5,2.155,2.155,0,0,1,1.375-.5ZM12.5-1.149a.367.367,0,0,1,.3.134.469.469,0,0,1,.11.307.64.64,0,0,1-.063.275,1.076,1.076,0,0,1-.252.307,3.127,3.127,0,0,1-1.085.59A4.653,4.653,0,0,1,10.02.69,4.522,4.522,0,0,1,8.377.407a3.481,3.481,0,0,1-1.242-.8,3.554,3.554,0,0,1-.786-1.234,4.415,4.415,0,0,1-.275-1.6,4.219,4.219,0,0,1,.291-1.588A3.865,3.865,0,0,1,7.15-6.056a3.55,3.55,0,0,1,1.164-.81,3.565,3.565,0,0,1,1.439-.291,3.59,3.59,0,0,1,1.266.22,2.932,2.932,0,0,1,1.022.637,2.919,2.919,0,0,1,.676,1.014,3.554,3.554,0,0,1,.244,1.352.831.831,0,0,1-.142.543.509.509,0,0,1-.409.165H7.362a2.825,2.825,0,0,0,.8,2.091,2.8,2.8,0,0,0,2,.723,3.372,3.372,0,0,0,.92-.118,3.21,3.21,0,0,0,.763-.322l.37-.212a.58.58,0,0,1,.285-.085ZM9.753-6.056a2.233,2.233,0,0,0-1.462.5,2.525,2.525,0,0,0-.833,1.4h4.434a2.083,2.083,0,0,0-.645-1.368,2.087,2.087,0,0,0-1.494-.532Zm11.6-1.022a.59.59,0,0,1,.448.173.678.678,0,0,1,.165.487V-.112a.846.846,0,0,1-.157.543.568.568,0,0,1-.472.2q-.629,0-.629-.739V-.866A2.613,2.613,0,0,1,19.557.3,3.5,3.5,0,0,1,17.93.69,3.535,3.535,0,0,1,16.593.423a3.671,3.671,0,0,1-1.187-.778A3.9,3.9,0,0,1,14.557-1.6a4.073,4.073,0,0,1-.322-1.659,4.063,4.063,0,0,1,.314-1.635,3.855,3.855,0,0,1,.826-1.227,3.536,3.536,0,0,1,1.179-.771,3.673,3.673,0,0,1,1.376-.267,3.6,3.6,0,0,1,1.635.37,2.578,2.578,0,0,1,1.148,1.156v-.786a.684.684,0,0,1,.165-.48.617.617,0,0,1,.48-.179ZM18.134-.442a2.59,2.59,0,0,0,1.006-.2,2.474,2.474,0,0,0,.826-.558,2.608,2.608,0,0,0,.558-.881,3.152,3.152,0,0,0,.2-1.164,3.154,3.154,0,0,0-.2-1.14,2.446,2.446,0,0,0-.55-.865,2.532,2.532,0,0,0-.826-.55A2.631,2.631,0,0,0,18.126-6a2.648,2.648,0,0,0-1.014.2,2.454,2.454,0,0,0-.833.558,2.644,2.644,0,0,0-.558.865,2.985,2.985,0,0,0-.2,1.132,3.048,3.048,0,0,0,.212,1.164,2.643,2.643,0,0,0,.574.881,2.56,2.56,0,0,0,.833.558,2.55,2.55,0,0,0,.994.2ZM25.981.706A1.719,1.719,0,0,1,24.762.289a1.648,1.648,0,0,1-.448-1.266v-9.687a.7.7,0,0,1,.157-.487.606.606,0,0,1,.472-.173.617.617,0,0,1,.456.173.659.659,0,0,1,.173.487v9.529a.739.739,0,0,0,.2.59.7.7,0,0,0,.464.165,1.177,1.177,0,0,0,.487-.086.868.868,0,0,1,.362-.086.336.336,0,0,1,.252.118.431.431,0,0,1,.11.307.647.647,0,0,1-.33.582,1.575,1.575,0,0,1-.5.189,3.047,3.047,0,0,1-.636.062Zm3.585-9.875a.847.847,0,0,1-.66-.259.892.892,0,0,1-.236-.621.836.836,0,0,1,.236-.6.876.876,0,0,1,.66-.244.829.829,0,0,1,.637.244.852.852,0,0,1,.228.6.909.909,0,0,1-.228.621.8.8,0,0,1-.637.259ZM29.692.643q-.629,0-.629-.66V-6.433q0-.66.629-.66a.606.606,0,0,1,.448.165.673.673,0,0,1,.165.5V-.017Q30.305.643,29.692.643Zm9.466-12a.59.59,0,0,1,.448.173.678.678,0,0,1,.165.487V-.1a.819.819,0,0,1-.157.527.55.55,0,0,1-.456.2q-.645,0-.645-.723V-.882a2.484,2.484,0,0,1-.519.684A3.174,3.174,0,0,1,37.3.289a3.536,3.536,0,0,1-.794.3,3.456,3.456,0,0,1-.826.1A3.515,3.515,0,0,1,34.339.423a3.519,3.519,0,0,1-1.164-.778A3.929,3.929,0,0,1,32.349-1.6a4.162,4.162,0,0,1-.315-1.659,4.25,4.25,0,0,1,.3-1.635,3.654,3.654,0,0,1,.81-1.227,3.556,3.556,0,0,1,1.172-.771A3.654,3.654,0,0,1,35.7-7.156a3.939,3.939,0,0,1,.817.086,3.26,3.26,0,0,1,.787.275,2.972,2.972,0,0,1,.692.48,2.485,2.485,0,0,1,.519.684v-5.063a.678.678,0,0,1,.165-.487.632.632,0,0,1,.478-.174ZM35.951-.442a2.55,2.55,0,0,0,.991-.2,2.474,2.474,0,0,0,.826-.558,2.608,2.608,0,0,0,.558-.881,3.152,3.152,0,0,0,.2-1.164,3.045,3.045,0,0,0-.2-1.14,2.6,2.6,0,0,0-.55-.865,2.445,2.445,0,0,0-.818-.55A2.59,2.59,0,0,0,35.952-6a2.689,2.689,0,0,0-1.03.2,2.454,2.454,0,0,0-.833.558,2.644,2.644,0,0,0-.558.865,2.985,2.985,0,0,0-.2,1.132,3.048,3.048,0,0,0,.212,1.164,2.643,2.643,0,0,0,.574.881,2.56,2.56,0,0,0,.833.558,2.59,2.59,0,0,0,1,.2ZM48.672-7.078a.59.59,0,0,1,.448.173.678.678,0,0,1,.165.487V-.112a.846.846,0,0,1-.157.543.568.568,0,0,1-.472.2q-.629,0-.629-.739V-.866A2.613,2.613,0,0,1,46.872.3a3.5,3.5,0,0,1-1.628.39A3.535,3.535,0,0,1,43.907.423,3.671,3.671,0,0,1,42.72-.355,3.9,3.9,0,0,1,41.871-1.6a4.073,4.073,0,0,1-.322-1.659,4.063,4.063,0,0,1,.314-1.635,3.855,3.855,0,0,1,.826-1.227,3.536,3.536,0,0,1,1.179-.771,3.673,3.673,0,0,1,1.376-.267,3.605,3.605,0,0,1,1.635.37,2.578,2.578,0,0,1,1.148,1.156v-.786a.684.684,0,0,1,.165-.48.617.617,0,0,1,.48-.179ZM45.448-.442a2.59,2.59,0,0,0,1.006-.2A2.474,2.474,0,0,0,47.28-1.2a2.609,2.609,0,0,0,.558-.881,3.152,3.152,0,0,0,.2-1.164,3.154,3.154,0,0,0-.2-1.14,2.446,2.446,0,0,0-.55-.865,2.533,2.533,0,0,0-.826-.55A2.631,2.631,0,0,0,45.44-6a2.648,2.648,0,0,0-1.014.2,2.454,2.454,0,0,0-.833.558,2.644,2.644,0,0,0-.558.865,2.985,2.985,0,0,0-.2,1.132,3.048,3.048,0,0,0,.212,1.164,2.643,2.643,0,0,0,.574.881,2.56,2.56,0,0,0,.833.558,2.55,2.55,0,0,0,.994.2ZM58.186-11.355a.59.59,0,0,1,.448.173.678.678,0,0,1,.165.487V-.1a.819.819,0,0,1-.157.527.55.55,0,0,1-.456.2q-.645,0-.645-.723V-.882a2.484,2.484,0,0,1-.519.684,3.174,3.174,0,0,1-.692.487,3.536,3.536,0,0,1-.794.3,3.456,3.456,0,0,1-.826.1A3.515,3.515,0,0,1,53.366.423,3.519,3.519,0,0,1,52.2-.355,3.929,3.929,0,0,1,51.377-1.6a4.162,4.162,0,0,1-.314-1.659,4.25,4.25,0,0,1,.3-1.635,3.655,3.655,0,0,1,.81-1.227,3.556,3.556,0,0,1,1.172-.771,3.654,3.654,0,0,1,1.384-.267,3.939,3.939,0,0,1,.817.086,3.26,3.26,0,0,1,.787.275,2.972,2.972,0,0,1,.692.48,2.484,2.484,0,0,1,.519.684V-10.7a.678.678,0,0,1,.165-.487.632.632,0,0,1,.477-.171ZM54.978-.442a2.55,2.55,0,0,0,.991-.2,2.474,2.474,0,0,0,.826-.558,2.608,2.608,0,0,0,.558-.881,3.152,3.152,0,0,0,.2-1.164,3.045,3.045,0,0,0-.2-1.14,2.6,2.6,0,0,0-.55-.865,2.445,2.445,0,0,0-.818-.55A2.59,2.59,0,0,0,54.979-6a2.689,2.689,0,0,0-1.03.2,2.454,2.454,0,0,0-.833.558,2.644,2.644,0,0,0-.558.865,2.985,2.985,0,0,0-.2,1.132,3.048,3.048,0,0,0,.212,1.164,2.643,2.643,0,0,0,.574.881,2.56,2.56,0,0,0,.833.558,2.59,2.59,0,0,0,1,.2Zm12.03-.708a.367.367,0,0,1,.3.134.469.469,0,0,1,.11.307.639.639,0,0,1-.063.275,1.076,1.076,0,0,1-.252.307,3.127,3.127,0,0,1-1.085.59,4.653,4.653,0,0,1-1.5.227A4.522,4.522,0,0,1,62.88.407a3.481,3.481,0,0,1-1.242-.8,3.554,3.554,0,0,1-.786-1.234,4.415,4.415,0,0,1-.275-1.6,4.219,4.219,0,0,1,.291-1.588,3.865,3.865,0,0,1,.786-1.242,3.55,3.55,0,0,1,1.164-.81,3.565,3.565,0,0,1,1.439-.291,3.59,3.59,0,0,1,1.266.22,2.932,2.932,0,0,1,1.022.637,2.919,2.919,0,0,1,.676,1.014,3.554,3.554,0,0,1,.244,1.352.831.831,0,0,1-.142.543.509.509,0,0,1-.409.165H61.865a2.825,2.825,0,0,0,.8,2.091,2.8,2.8,0,0,0,2,.723,3.372,3.372,0,0,0,.92-.118,3.209,3.209,0,0,0,.763-.322l.37-.212a.58.58,0,0,1,.289-.084ZM64.255-6.056a2.233,2.233,0,0,0-1.462.5,2.525,2.525,0,0,0-.833,1.4h4.434a2.083,2.083,0,0,0-.645-1.368,2.087,2.087,0,0,0-1.494-.532ZM7.708,8.647a.59.59,0,0,1,.448.173.678.678,0,0,1,.165.487v6.306a.846.846,0,0,1-.157.543.568.568,0,0,1-.472.2q-.629,0-.629-.739v-.755a2.613,2.613,0,0,1-1.156,1.164,3.525,3.525,0,0,1-2.964.126,3.671,3.671,0,0,1-1.187-.778,3.9,3.9,0,0,1-.849-1.242,4.073,4.073,0,0,1-.322-1.659A4.063,4.063,0,0,1,.9,10.833a3.855,3.855,0,0,1,.826-1.227A3.536,3.536,0,0,1,2.9,8.836a3.673,3.673,0,0,1,1.38-.267,3.605,3.605,0,0,1,1.635.37A2.578,2.578,0,0,1,7.063,10.1V9.308a.684.684,0,0,1,.165-.48A.617.617,0,0,1,7.708,8.647ZM4.485,15.283a2.59,2.59,0,0,0,1.006-.2,2.474,2.474,0,0,0,.826-.558,2.608,2.608,0,0,0,.558-.881,3.409,3.409,0,0,0,.008-2.3,2.446,2.446,0,0,0-.55-.865,2.533,2.533,0,0,0-.826-.55,2.735,2.735,0,0,0-2.036,0,2.454,2.454,0,0,0-.833.558,2.644,2.644,0,0,0-.558.865,2.985,2.985,0,0,0-.2,1.132,3.048,3.048,0,0,0,.212,1.164,2.643,2.643,0,0,0,.574.881,2.569,2.569,0,0,0,1.824.755Zm11.9-6.667a.583.583,0,0,1,.44.181A.687.687,0,0,1,17,9.3V15.76a.56.56,0,0,1-.173.448.585.585,0,0,1-.393.149.615.615,0,0,1-.4-.149.548.548,0,0,1-.181-.448V15a2.481,2.481,0,0,1-.983,1.061,2.856,2.856,0,0,1-1.439.354,3.176,3.176,0,0,1-1.109-.189,2.358,2.358,0,0,1-.881-.566,2.643,2.643,0,0,1-.582-.959,3.99,3.99,0,0,1-.212-1.368V9.292a.687.687,0,0,1,.173-.5.665.665,0,0,1,.912,0,.687.687,0,0,1,.173.5v4.026a2.058,2.058,0,0,0,.511,1.58,1.9,1.9,0,0,0,1.329.464,1.962,1.962,0,0,0,.841-.173,1.875,1.875,0,0,0,.629-.472,2.127,2.127,0,0,0,.4-.708,2.724,2.724,0,0,0,.142-.9V9.292q0-.676.634-.676ZM27.22,8.569a3.112,3.112,0,0,1,.991.157,2.281,2.281,0,0,1,.826.48,2.327,2.327,0,0,1,.566.818,3,3,0,0,1,.212,1.187v4.482q0,.66-.629.66a.59.59,0,0,1-.448-.173.678.678,0,0,1-.165-.487V11.258a1.822,1.822,0,0,0-.134-.731,1.307,1.307,0,0,0-.362-.5,1.576,1.576,0,0,0-.511-.283,1.828,1.828,0,0,0-.582-.094,1.768,1.768,0,0,0-.684.134,1.793,1.793,0,0,0-.566.37,1.743,1.743,0,0,0-.385.558,1.761,1.761,0,0,0-.142.715v4.261a.678.678,0,0,1-.165.487.59.59,0,0,1-.448.173.617.617,0,0,1-.456-.173.659.659,0,0,1-.173-.487v-4.43a1.822,1.822,0,0,0-.134-.731,1.349,1.349,0,0,0-.354-.5,1.475,1.475,0,0,0-.511-.283,1.9,1.9,0,0,0-.59-.094,1.768,1.768,0,0,0-.684.134,1.7,1.7,0,0,0-.558.37,1.809,1.809,0,0,0-.377.558,1.761,1.761,0,0,0-.142.715H20.6v4.261q0,.66-.629.66a.59.59,0,0,1-.448-.173.678.678,0,0,1-.165-.487V9.308a.7.7,0,0,1,.157-.487.565.565,0,0,1,.44-.173.59.59,0,0,1,.448.173.678.678,0,0,1,.165.487v.519a2.218,2.218,0,0,1,.9-.943A2.529,2.529,0,0,1,22.7,8.57a2.8,2.8,0,0,1,1.36.338A2.043,2.043,0,0,1,24.99,10a2.33,2.33,0,0,1,.928-1.077,2.515,2.515,0,0,1,1.305-.354Zm10.74,6.007a.367.367,0,0,1,.3.134.469.469,0,0,1,.11.307.639.639,0,0,1-.063.275,1.076,1.076,0,0,1-.252.307,3.127,3.127,0,0,1-1.085.59,4.653,4.653,0,0,1-1.494.228,4.522,4.522,0,0,1-1.643-.283,3.481,3.481,0,0,1-1.242-.8,3.554,3.554,0,0,1-.786-1.234,4.415,4.415,0,0,1-.275-1.6,4.219,4.219,0,0,1,.291-1.588,3.865,3.865,0,0,1,.786-1.242,3.661,3.661,0,0,1,3.866-.88,2.869,2.869,0,0,1,1.7,1.651,3.554,3.554,0,0,1,.244,1.352.831.831,0,0,1-.142.543.509.509,0,0,1-.409.165H32.821a2.626,2.626,0,0,0,2.8,2.815,3.372,3.372,0,0,0,.92-.118,3.209,3.209,0,0,0,.763-.322l.37-.212a.58.58,0,0,1,.289-.088ZM35.211,9.669a2.233,2.233,0,0,0-1.462.5,2.525,2.525,0,0,0-.833,1.4H37.35a2.021,2.021,0,0,0-2.139-1.9Zm8.727-1.1a2.854,2.854,0,0,1,2.036.731,2.982,2.982,0,0,1,.778,2.272v4.1a.729.729,0,0,1-.157.5.686.686,0,0,1-.92.008.7.7,0,0,1-.165-.5V11.588a1.9,1.9,0,0,0-.519-1.494,2.26,2.26,0,0,0-2.909.157,2.316,2.316,0,0,0-.566,1.635v3.79a.729.729,0,0,1-.157.5.592.592,0,0,1-.472.181q-.629,0-.629-.676V9.292a.675.675,0,0,1,.157-.472.585.585,0,0,1,.456-.173.612.612,0,0,1,.44.165.632.632,0,0,1,.173.48v.566a2.542,2.542,0,0,1,1-.959,3.055,3.055,0,0,1,1.455-.33Zm8.586,6.667a.364.364,0,0,1,.267.11.426.426,0,0,1,.11.314.6.6,0,0,1-.3.5,2.7,2.7,0,0,1-.621.2,3.72,3.72,0,0,1-.731.071,2.041,2.041,0,0,1-1.557-.55,2.429,2.429,0,0,1-.519-1.714V9.638H48.31A.427.427,0,0,1,48,9.512a.5.5,0,0,1,0-.66.427.427,0,0,1,.314-.126h.865V7.09a.687.687,0,0,1,.173-.5.665.665,0,0,1,.912,0,.687.687,0,0,1,.173.5V8.726H52.23a.427.427,0,0,1,.314.126.5.5,0,0,1,0,.66.427.427,0,0,1-.314.126h-1.8v4.387a1.563,1.563,0,0,0,.291,1.069,1.132,1.132,0,0,0,.873.315,1.828,1.828,0,0,0,.6-.086,1.271,1.271,0,0,1,.323-.087Zm8.193-6.589a.59.59,0,0,1,.448.173.678.678,0,0,1,.165.487v6.306a.846.846,0,0,1-.157.543.568.568,0,0,1-.472.2q-.629,0-.629-.739v-.755a2.613,2.613,0,0,1-1.156,1.164,3.525,3.525,0,0,1-2.964.126,3.671,3.671,0,0,1-1.187-.778,3.9,3.9,0,0,1-.849-1.242,4.073,4.073,0,0,1-.322-1.659,4.063,4.063,0,0,1,.314-1.635,3.855,3.855,0,0,1,.826-1.227,3.536,3.536,0,0,1,1.179-.771,3.673,3.673,0,0,1,1.376-.267,3.6,3.6,0,0,1,1.635.37A2.578,2.578,0,0,1,60.072,10.1V9.308a.684.684,0,0,1,.165-.48.617.617,0,0,1,.48-.181Zm-3.224,6.636a2.59,2.59,0,0,0,1.006-.2,2.474,2.474,0,0,0,.826-.558,2.609,2.609,0,0,0,.558-.881,3.409,3.409,0,0,0,.008-2.3,2.446,2.446,0,0,0-.55-.865,2.533,2.533,0,0,0-.826-.55,2.735,2.735,0,0,0-2.036,0,2.454,2.454,0,0,0-.833.558,2.644,2.644,0,0,0-.558.865,2.985,2.985,0,0,0-.2,1.132,3.048,3.048,0,0,0,.212,1.164,2.643,2.643,0,0,0,.574.881,2.569,2.569,0,0,0,1.824.755ZM70.231,4.37a.59.59,0,0,1,.448.173.678.678,0,0,1,.165.487v10.6a.819.819,0,0,1-.157.527.55.55,0,0,1-.456.2q-.645,0-.645-.723v-.786a2.484,2.484,0,0,1-.519.684,3.174,3.174,0,0,1-.692.487,3.536,3.536,0,0,1-.794.3,3.456,3.456,0,0,1-.826.1,3.545,3.545,0,0,1-2.508-1.046,3.929,3.929,0,0,1-.826-1.242,4.162,4.162,0,0,1-.314-1.659,4.25,4.25,0,0,1,.3-1.635,3.654,3.654,0,0,1,.81-1.227,3.557,3.557,0,0,1,1.172-.771,3.654,3.654,0,0,1,1.384-.267,3.939,3.939,0,0,1,.817.086,3.26,3.26,0,0,1,.787.275,2.972,2.972,0,0,1,.692.48,2.484,2.484,0,0,1,.519.684V5.03a.678.678,0,0,1,.165-.487.632.632,0,0,1,.478-.173ZM67.023,15.283a2.55,2.55,0,0,0,.991-.2,2.474,2.474,0,0,0,.826-.558,2.609,2.609,0,0,0,.558-.881,3.152,3.152,0,0,0,.2-1.164,3.045,3.045,0,0,0-.2-1.14,2.6,2.6,0,0,0-.55-.865,2.445,2.445,0,0,0-.818-.55,2.59,2.59,0,0,0-1.006-.2,2.689,2.689,0,0,0-1.03.2,2.454,2.454,0,0,0-.833.558,2.644,2.644,0,0,0-.558.865,2.985,2.985,0,0,0-.2,1.132,3.048,3.048,0,0,0,.212,1.164,2.643,2.643,0,0,0,.574.881,2.56,2.56,0,0,0,.833.558A2.59,2.59,0,0,0,67.023,15.283ZM79.745,8.647a.59.59,0,0,1,.448.173.678.678,0,0,1,.165.487v6.306a.846.846,0,0,1-.157.543.568.568,0,0,1-.472.2q-.629,0-.629-.739v-.755a2.613,2.613,0,0,1-1.156,1.164,3.525,3.525,0,0,1-2.964.126,3.671,3.671,0,0,1-1.187-.778,3.9,3.9,0,0,1-.849-1.242,4.073,4.073,0,0,1-.322-1.659,4.063,4.063,0,0,1,.314-1.635,3.855,3.855,0,0,1,.826-1.227,3.536,3.536,0,0,1,1.179-.771,3.673,3.673,0,0,1,1.376-.267,3.6,3.6,0,0,1,1.635.37A2.578,2.578,0,0,1,79.1,10.094V9.308a.684.684,0,0,1,.165-.48.617.617,0,0,1,.48-.181Zm-3.224,6.636a2.59,2.59,0,0,0,1.006-.2,2.474,2.474,0,0,0,.826-.558,2.608,2.608,0,0,0,.558-.881,3.409,3.409,0,0,0,.008-2.3,2.446,2.446,0,0,0-.55-.865,2.532,2.532,0,0,0-.826-.55,2.735,2.735,0,0,0-2.036,0,2.454,2.454,0,0,0-.833.558,2.644,2.644,0,0,0-.558.865,2.985,2.985,0,0,0-.2,1.132,3.048,3.048,0,0,0,.212,1.164,2.643,2.643,0,0,0,.574.881,2.569,2.569,0,0,0,1.824.755Z" transform="translate(-11830.585 -1661.431)" fill="#fff" />
        <g id="Grupo_168" data-name="Grupo 168" transform="translate(-10176.795 -839.722)">
            <path id="Caminho_142" data-name="Caminho 142" d="M-1672.06-809.988a5.793,5.793,0,0,1-4.129-1.819,5.792,5.792,0,0,1-1.571-4.229,5.792,5.792,0,0,1,1.571-4.229,5.792,5.792,0,0,1,4.129-1.819,5.792,5.792,0,0,1,4.129,1.819,5.792,5.792,0,0,1,1.571,4.229,5.793,5.793,0,0,1-1.571,4.229,5.792,5.792,0,0,1-4.128,1.819m-25.668,0c-3.049,0-5.606-2.409-5.606-6.048a5.717,5.717,0,0,1,1.514-4.219,5.716,5.716,0,0,1,4.092-1.829,5.716,5.716,0,0,1,4.092,1.829,5.716,5.716,0,0,1,1.514,4.219c0,3.639-2.557,6.048-5.606,6.048m-25.914,0a5.792,5.792,0,0,1-4.129-1.819,5.791,5.791,0,0,1-1.571-4.229,5.792,5.792,0,0,1,1.571-4.229,5.792,5.792,0,0,1,4.129-1.819,5.792,5.792,0,0,1,4.129,1.819,5.791,5.791,0,0,1,1.571,4.229,5.791,5.791,0,0,1-1.571,4.229,5.792,5.792,0,0,1-4.129,1.819m-35.01-.049a5.762,5.762,0,0,1-4.138-1.81,5.762,5.762,0,0,1-1.562-4.238,5.735,5.735,0,0,1,1.552-4.247,5.733,5.733,0,0,1,4.148-1.8,5.7,5.7,0,0,1,4.129,1.807,5.7,5.7,0,0,1,1.526,4.241,5.723,5.723,0,0,1-1.534,4.234,5.724,5.724,0,0,1-4.121,1.814m86.592-17.8a11.587,11.587,0,0,0-8.313,3.445,11.587,11.587,0,0,0-3.341,8.355,11.528,11.528,0,0,0,3.323,8.373,11.528,11.528,0,0,0,8.331,3.427,11.587,11.587,0,0,0,8.313-3.445,11.587,11.587,0,0,0,3.341-8.355,11.528,11.528,0,0,0-3.323-8.374,11.527,11.527,0,0,0-8.332-3.426m-51.581,0a11.587,11.587,0,0,0-8.313,3.445,11.587,11.587,0,0,0-3.341,8.355,11.526,11.526,0,0,0,3.322,8.374,11.527,11.527,0,0,0,8.332,3.426,11.587,11.587,0,0,0,8.313-3.445,11.587,11.587,0,0,0,3.341-8.355,11.527,11.527,0,0,0-3.322-8.374,11.527,11.527,0,0,0-8.332-3.426m-27.979.393a1.086,1.086,0,0,0-.866.314,1.086,1.086,0,0,0-.314.866v1.279a8.428,8.428,0,0,0-6.245-2.852c-6,0-11.162,5.114-11.162,11.8s4.868,11.309,11.015,11.309a8.32,8.32,0,0,0,6.1-2.606c-.049,4.671-2.508,6.786-6.736,6.786a12.275,12.275,0,0,1-6.835-2.262,1.108,1.108,0,0,0-.958-.231,1.108,1.108,0,0,0-.763.624l-1.475,2.9a1.245,1.245,0,0,0-.164.982,1.245,1.245,0,0,0,.607.788,18.52,18.52,0,0,0,9.736,2.95c8.113,0,12.588-4.376,12.588-14.457v-17.013a1.087,1.087,0,0,0-.314-.866,1.086,1.086,0,0,0-.866-.314Zm54.581-.393a8.817,8.817,0,0,0-6.2,2.606v-10.424a1.087,1.087,0,0,0-.314-.866,1.086,1.086,0,0,0-.866-.314h-3.639a1.086,1.086,0,0,0-.866.314,1.086,1.086,0,0,0-.314.866v29.847a1.086,1.086,0,0,0,.314.866,1.086,1.086,0,0,0,.866.314h3.3a1.087,1.087,0,0,0,.866-.314,1.086,1.086,0,0,0,.314-.866v-1.279a9.358,9.358,0,0,0,6.687,2.852c5.753,0,10.719-5.212,10.719-11.8,0-6.687-5.016-11.8-10.867-11.8m-44.6-9.2c-1.426-.639-2.409,0-2.409,1.573v29.454c0,1.573.983,2.213,2.409,1.573l1.869-.836a2.6,2.6,0,0,0,1.721-2.606v-25.717a2.6,2.6,0,0,0-1.721-2.606Z" transform="translate(0 -1)" fill="#fff" />
        </g>
        <g id="Globo_logo_and_wordmark" transform="translate(-11750.228 -1678.059)">
            <path id="Caminho_1" data-name="Caminho 1" d="M-86.426-269.837a4.27,4.27,0,0,0-4.259,4.27,4.272,4.272,0,0,0,4.259,4.275,4.273,4.273,0,0,0,4.262-4.275,4.271,4.271,0,0,0-4.261-4.27Zm-.36,2.139h.36a26.425,26.425,0,0,1,2.908.119c.269.028.411.092.443.384.05.53.055,1.075.055,1.628a16,16,0,0,1-.055,1.633c-.032.293-.174.357-.443.384a27.68,27.68,0,0,1-2.908.119,27.636,27.636,0,0,1-2.9-.118c-.269-.028-.411-.092-.443-.384-.05-.53-.055-1.075-.055-1.633a15.807,15.807,0,0,1,.055-1.628c.032-.292.174-.356.443-.384a24.752,24.752,0,0,1,2.544-.119Zm.36.4a1.729,1.729,0,0,0-1.73,1.728,1.726,1.726,0,0,0,.507,1.223,1.726,1.726,0,0,0,1.224.505,1.726,1.726,0,0,0,1.226-.5,1.726,1.726,0,0,0,.508-1.225,1.73,1.73,0,0,0-.509-1.224,1.73,1.73,0,0,0-1.225-.5Z" transform="translate(90.685 269.837)" fill="#fff" fill-rule="evenodd" />
        </g>
    </g>
</svg>